<svg id="Capa_1" enable-background="new 0 0 512 512" height="512" viewBox="0 0 512 512" width="512" xmlns="http://www.w3.org/2000/svg"><path d="m271.387 408.039-36.799 9.391 42.057 92.229c.65 1.426 2.07 2.34 3.637 2.34 14.645 0 86.837 0 84.253 0-2.876.001-93.148-103.96-93.148-103.96z" fill="#733a10"/><path d="m258.03 408.039c-.534 1.289-81.366 73.895-107.099 96.988-2.73 2.45-.992 6.972 2.677 6.972h76.988c1.403 0 2.703-.735 3.427-1.937l57.773-95.944z" fill="#8c4815"/><path d="m2.933 461.774 254.697-70.505 34.166 22.851-232.987 97.57c-.489.205-1.015.31-1.545.31h-53.264c-2.209 0-4-1.791-4-4v-42.371c0-1.798 1.2-3.376 2.933-3.855z" fill="#a35418"/><path d="m509.269 461.672-287.722-96.252-32.372 20.834 263.943 125.359c.536.255 1.122.387 1.716.387h53.166c2.209 0 4-1.791 4-4v-42.535c0-1.72-1.1-3.247-2.731-3.793z" fill="#bf6724"/><path d="m345.82 345.621c0 51.674-40.214 75.137-89.82 75.137s-89.82-23.463-89.82-75.137 75.299-153.32 89.82-153.32c14.522.001 89.82 101.646 89.82 153.32z" fill="#ffa000"/><path d="m256 192.302c-2.981 0-8.526 4.29-15.453 11.545 26.814 28.088 74.368 100.708 74.368 141.775 0 46.185-32.125 69.831-74.368 74.334 5.021.535 10.183.803 15.453.803 49.606 0 89.82-23.463 89.82-75.137s-75.298-153.32-89.82-153.32z" fill="#f57f17"/><path d="m402.803 76.326c-19.233 19.233-50.248 4.15-54.803 1.773-.375-.196-.673-.494-.868-.868-2.378-4.556-17.467-35.577 1.767-54.811 27.977-27.977 65.764-22.453 73.3-21.006.824.158 1.461.795 1.619 1.619 1.444 7.535 6.962 45.316-21.015 73.293z" fill="#ffca28"/><path d="m423.816 3.033c-.158-.824-.795-1.461-1.619-1.619-4.001-.768-16.532-2.685-31.594-.127.248.044.484.088.689.127.824.158 1.461.795 1.619 1.619 1.445 7.535 6.963 45.316-21.013 73.293-3.264 3.264-6.87 5.52-10.625 7.037 11.942 3.507 29.167 5.327 41.531-7.037 27.976-27.977 22.458-65.758 21.012-73.293z" fill="#ffb300"/><path d="m157.835 99.43c19.233 19.233 4.151 50.248 1.774 54.804-.196.375-.494.673-.868.868-4.556 2.378-35.577 17.467-54.811-1.767-27.977-27.977-22.453-65.764-21.006-73.3.158-.824.795-1.461 1.619-1.619 7.534-1.445 45.315-6.963 73.292 21.014z" fill="#ffca28"/><path d="m157.835 99.43c-27.234-27.234-63.748-22.729-72.618-21.138 13.305 2.26 28.588 8.013 41.713 21.138 19.233 19.233 4.151 50.248 1.774 54.804-.196.375-.494.673-.868.868-1.628.849-6.643 3.319-13.284 5.268 18.378 7.426 40.406-3.294 44.189-5.268.375-.196.673-.494.868-.868 2.376-4.556 17.459-35.571-1.774-54.804z" fill="#ffb300"/><g fill="#bf6724"><path d="m402.151 23.072c-2.93-2.928-7.678-2.928-10.607 0l-66.177 66.177c-2.929 2.93-2.929 7.678 0 10.607 2.931 2.929 7.678 2.928 10.607 0l66.177-66.177c2.929-2.929 2.929-7.677 0-10.607z"/><path d="m115.188 100.082c-2.93-2.928-7.678-2.928-10.607 0-2.929 2.93-2.929 7.678 0 10.607l66.177 66.177c2.931 2.929 7.678 2.928 10.607 0 2.929-2.93 2.929-7.678 0-10.607z"/></g></svg>